<?xml version="1.0" encoding="utf-8"?>
<!-- Generator: Adobe Illustrator 17.1.0, SVG Export Plug-In . SVG Version: 6.00 Build 0)  -->
<!DOCTYPE svg PUBLIC "-//W3C//DTD SVG 1.1//EN" "http://www.w3.org/Graphics/SVG/1.1/DTD/svg11.dtd">
<svg version="1.1" id="Layer_1" xmlns="http://www.w3.org/2000/svg" xmlns:xlink="http://www.w3.org/1999/xlink" x="0px" y="0px"
	 viewBox="-125 -125 350 350" enable-background="new -125 -125 350 350" xml:space="preserve">
<path fill="none" d="M605.8,266.5l-14.4-1.6c-0.7-0.1-1.4,0.4-1.5,1.1l-2.5,19.9c-0.1,0.7,0.4,1.4,1.2,1.4L603,289
	c0.7,0.1,1.4-0.4,1.5-1.1L607,268C607.1,267.3,606.5,266.6,605.8,266.5z M602.5,286.9l-12.9-1.4l2.3-18.5l12.9,1.4L602.5,286.9z"/>
<path fill="none" d="M593,279.2c0.3,0.4,0.9,0.6,1.5,0.7c0.7,0.1,1.5-0.1,2.2-0.6c-0.2,1.9-2.5,3.3-2.5,3.3s1.1-0.3,2.4-0.2
	c1.2,0.1,2.2,0.7,2.2,0.7s-1.9-2-1.6-3.7c0.5,0.6,1.2,0.9,1.9,1c0.6,0.1,1.2,0,1.6-0.3c0.7-0.5,1.1-1.2,1.1-2.1
	c0-1.9-2.9-4.4-3.8-6.9c-1.6,2.3-5,4.2-5.4,5.9C592.3,277.8,592.5,278.6,593,279.2z"/>
<path fill="none" d="M588.3,278.7l-4-13.1l12.5-3.4l1.1,3.5l2.3,0.3l-1.5-5c-0.2-0.7-1-1.1-1.7-0.9l-14,3.8
	c-0.7,0.2-1.1,0.9-0.9,1.6l5.6,18.3L588.3,278.7z"/>
<circle fill="#62CAE3" cx="50" cy="50" r="175"/>
<g>
	<path fill="#FFFFFF" d="M-241.7-9.5l-42.3-4.7l-11.3-37c-1.6-5.1-7.2-8-12.6-6.6L-412-29.2c-5.4,1.5-8.5,6.9-6.9,11.9l41.8,136.8
		l-2,15.8c-0.7,5.3,3.3,10.1,8.9,10.7l107.7,12.1c5.5,0.6,10.6-3.2,11.3-8.4l18.5-148.5C-232.1-4.1-236.1-8.9-241.7-9.5z
		 M-372.4,81.3l-29.8-97.6l93.3-25.7l7.9,25.8l-48.4-5.4c-5.5-0.6-10.6,3.2-11.3,8.4L-372.4,81.3z M-266.3,142.7l-96.5-10.8
		l17.1-137.9l96.5,10.8L-266.3,142.7z"/>
	<path fill="#FFFFFF" d="M-325.9,90.6c5,0.6,11.5-0.5,16.1-4.5c-1.7,13.8-18.8,24.3-18.8,24.3s8.5-2.5,17.6-1.4
		c9.1,1,16.8,5.3,16.8,5.3s-13.9-14.9-12.3-27.8c3.4,4.7,9,7.1,14.1,7.6c4.7,0.5,9.2-0.3,12.3-2.4c5.4-3.6,8.2-9.1,8.2-16
		c0-13.9-21.5-32.6-28.7-51.6c-11.8,17-37.1,31.7-40.2,43.9c-1.6,6.2-0.3,12.1,3.7,17.1C-334.8,88.1-330.7,90.1-325.9,90.6z"/>
</g>
<g>
	<path fill="#FFFFFF" d="M-703.5,61.2v8.6c2.1,14.5,49,56.1,59.7,56.1h75.4c10.7,0,57.6-41.6,59.7-56.1v-8.6L-703.5,61.2
		L-703.5,61.2z"/>
	<g>
		<path fill="#FFFFFF" d="M-563.7,14.8c0.3-0.3,8.5-6.7,8.9-14.6l0,0c0.1-1.3-1-2.5-2.3-2.6c-1.3-0.1-2.5,1-2.6,2.3l0,0
			c-0.3,5.6-7,10.9-7.1,11c0.1-0.1,0.3-0.2,0.4-0.3l-0.4,0.3c-1.1,0.8-1.3,2.4-0.4,3.4S-564.8,15.6-563.7,14.8L-563.7,14.8z"/>
	</g>
	<g>
		<path fill="#FFFFFF" d="M-559.8,47.4c-3-0.8-9.2-0.9-11.3,4.3l0,0c-0.5,1.2,0.1,2.7,1.3,3.2c1.2,0.5,2.7-0.1,3.2-1.3l0,0
			c1-2.5,5.5-1.4,5.6-1.4l0,0c1.3,0.3,2.6-0.4,3-1.7C-557.7,49.1-558.5,47.7-559.8,47.4L-559.8,47.4z"/>
	</g>
	<path fill="#FFFFFF" d="M-512.9,37.3c-8.7,4-19.2,14.9-15.4,16.9c3.8,2,9.2-1.2,15-5.8C-507.6,43.7-506.4,34.3-512.9,37.3z"/>
	<g>
		<path fill="#FFFFFF" d="M-582.6,6.8c-3.9,0.2-9.3,1-11.6,6.2c0,0-0.3,0.8-0.3,0.8c-0.8,1.9-1.7,3.8-0.9,5.8c0.8,2,2.9,3,4.7,3.7
			c5.8,2.3,12.8,1,15.9-2.9c1.7-2.2,1.8-5.5,0.2-8.5C-576.3,8.6-579.3,6.7-582.6,6.8z M-578.7,17.4c-1.5,2-6.1,3-10.3,1.4
			c-1.7-0.7-2-1.1-2-1.1c0,0,0.1,0.1,0.1,0.2c0-0.3,0.4-1.3,0.8-2.1l0.4-0.8c0.6-1.5,2-3,7.3-3.3c2.1-0.1,3.2,1.8,3.5,2.4
			C-578.2,15.5-578.2,16.8-578.7,17.4z"/>
	</g>
	<g>
		<path fill="#FFFFFF" d="M-613.9,9.3c-4.1-0.5-7.3,2.3-10.1,5.2c-1.4,1.4-3.5,3.5-3.4,6.3c0.1,1.8,1.1,3.6,3.1,5.2l0.8,0.7
			c3.7,3.1,6.3,4.9,12.2,1.4c5.3-3.1,5.6-5.5,5.5-8.6c0-0.3,0-0.7,0-1C-605.8,14.3-610.9,9.6-613.9,9.3z M-610.6,18.6
			c0,0.4,0,0.9,0,1.2c0.1,1.8,0.1,2.3-3.1,4.2c-3.2,1.9-3.6,1.6-6.6-1l-0.9-0.7c-1-0.8-1.4-1.4-1.4-1.7c0-0.6,1.4-2.1,2-2.6
			c2.5-2.5,4.4-4,6.1-3.8c0,0,0,0,0,0C-613.4,14.4-610.6,17-610.6,18.6z"/>
	</g>
	<path fill="#FFFFFF" d="M-593.1,35.7c-4.9-2.2-16.6-6.8-19.5-0.8c-0.6,1.3-1.8,2.7-2.9,3.9c-1.9,2.1-3.7,4.1-3.1,6.5
		c0.3,1.4,1.4,2.4,3.1,3c5.7,2.1,12.9,4.1,17.5,1.3c3.8-2.3,5.1-7,5.7-9.5c0.1-0.4,0.3-1,0.3-1.1C-591.4,37.8-591.9,36.3-593.1,35.7
		z M-600.5,45.5c-3.1,1.9-10.1-0.5-12.9-1.6c0.4-0.6,1.1-1.3,1.5-1.8c1.3-1.5,2.8-3.1,3.7-5c0.9-0.7,5.8,0.1,11.1,2.2
		C-597.6,41.3-598.5,44.3-600.5,45.5z M-521.4,22c-0.2-5.3-0.9-6.5-3.1-8.9l-0.3-0.3c-1.9-2.1-4.4-2.9-7.1-2.4
		c-4.1,0.8-7.6,4.4-8.8,7.5c-0.3,0.8-0.7,1.6-1.1,2.4c-1.4,2.7-3.1,6.1-0.1,10.1c3.9,5.1,8.1,5.5,13.9,1.1c1.4-1,2.3-1.6,3.1-2.1
		C-521.8,27.5-521.3,26.3-521.4,22z M-598.3-11.1c-3.4-0.5-11.5-1.2-13.3,3.1c-1.5,3.5-1,10-0.9,10.7c0.1,1.1,1,2.1,2.1,2.2
		c1.1,0.2,10.8,1.5,15.4-0.8c2.8-1.4,4.1-4.6,3.4-8.3C-592.3-8-595.1-10.8-598.3-11.1z"/>
	<path fill="#FFFFFF" d="M-678.9,6.6L-678.9,6.6L-678.9,6.6c-1-7-1.6-11.1-2.6-17.1c-5.9-33.7-11.2-59.1-15-58.7c0,0,0,0,0,0
		c0,0,0,0,0,0c0,0,0,0,0,0c0,0,0,0,0,0c-3.7,0.5-0.8,29.3,4.7,62.4c1,6,1.6,8.3,2.8,15.4c0,0-10.8,8.2-8.5,18.5
		c1.7,7.7,10.6,28,11.5,29.1c-2.2-11.7-2.7-26.8,0.2-26.8c2-0.5,6.7,15.6,9.5,25.5c0,0-0.6-27,1.7-27.1c3-0.2,5.8,14.1,6.8,26
		c0.6-1.4,3.9-23.2,3.6-31.1C-664.9,12.2-678.9,6.6-678.9,6.6z"/>
	<path fill="#FFFFFF" d="M-540.8,41.9c-0.6-1.4-3.3-5.5-12.9-3.3c0.1-3-0.9-5.8-2.9-8c-2.6-2.8-6.2-3.8-9.5-2.7
		c-2,0.7-5.2,2.6-6.7,8.4c-3.3-1.2-6.5-1.2-8.9,0.1c-2.3,1.2-3.7,3.5-3.7,6.1c0,3.8,2.8,7.7,7.9,10.7c1.2,0.7,2.7,0.3,3.3-0.9
		c0.7-1.2,0.3-2.7-0.9-3.3c-4-2.3-5.5-4.8-5.4-6.4c0-1,0.6-1.6,1.2-1.9c1.3-0.7,3.9-0.8,7.1,1.3c0.7,0.4,1.6,0.5,2.4,0.1
		c0.8-0.4,1.3-1.1,1.4-1.9c0.5-4.2,1.9-6.9,4-7.6c1.4-0.5,3.1,0.1,4.4,1.4c1.7,1.8,2.1,4.5,1.1,7.1c-0.4,0.9-0.2,1.9,0.5,2.6
		c0.7,0.7,1.7,0.9,2.6,0.6c7.2-2.4,10.4-1.4,10.8-0.5c0.4,1-1.1,4.1-6.5,6.9c-1.2,0.6-1.7,2.1-1,3.3c0.6,1.2,2.1,1.7,3.3,1
		C-542.5,51.4-539,46.1-540.8,41.9z M-632.3,40.4c2-3.3,2.2-7.2,1.3-10.2c-1-3.4-3.2-5.7-6-6.1c-1.8-0.3-4.4,0.2-7.2,3.1
		c-1.5-2.4-3.5-4-5.7-4.4c-2.1-0.4-4,0.4-5.4,2.1c-2.4,3-2.5,8.2-0.2,14.1c0.5,1.3,1.9,1.9,3.2,1.4c1.3-0.5,1.9-1.9,1.4-3.2
		c-2.1-5.3-1.3-8.3-0.5-9.3c0.3-0.4,0.6-0.4,0.8-0.4c0.8,0.1,2.4,1.3,3.7,4.9c0.3,0.9,1.1,1.5,2,1.6c0.9,0.1,1.8-0.3,2.3-1.1
		c2.1-3.3,4-4.3,5-4.1c0.8,0.1,1.7,1.2,2.1,2.6c0.7,2.4,0.3,5.9-2.2,8c-0.7,0.6-1,1.5-0.8,2.3c0.2,0.9,0.8,1.6,1.6,1.8
		c5.8,2,7.5,4.6,7.2,5.9c-0.3,1.4-2.8,2.6-6.8,2c-1.3-0.2-2.6,0.8-2.7,2.1c-0.2,1.3,0.8,2.6,2.1,2.7c7.3,0.9,11.3-2.2,12.1-5.8
		C-624.4,47.6-626,43.4-632.3,40.4z"/>
	<g>
		<path fill="#FFFFFF" d="M-640.1,44.6c-0.3-0.4-2.7-3.7-6.1-4.2c-1.6-0.2-3.1,0.3-4.4,1.4l0,0c-1,0.9-1.1,2.4-0.2,3.4
			c0.9,1,2.4,1.1,3.4,0.2l0,0c0.3-0.3,0.5-0.3,0.6-0.2c0.8,0.1,2.1,1.3,2.7,2.1l0,0c0.8,1.1,2.3,1.4,3.4,0.6
			C-639.5,47.2-639.3,45.7-640.1,44.6L-640.1,44.6z"/>
	</g>
</g>
<g>
	<g>
		<path fill="#FFFFFF" d="M-694.6-179c0-4.4-4.4-9.9-12.1-9.9c-6.7,0-9.9,5.4-9.9,12.1c0,6.6,6.6,9.9,9.9,9.9
			C-703.4-166.9-694.6-165.8-694.6-179z"/>
		<path fill="#FFFFFF" d="M-649.1-179c0-4.4-4.4-9.9-12.1-9.9c-6.7,0-9.9,5.4-9.9,12.1c0,6.6,6.6,9.9,9.9,9.9
			S-649.1-165.8-649.1-179z"/>
		<path fill="#FFFFFF" d="M-606.9-179c0-4.4-4.4-9.9-12.1-9.9c-6.7,0-9.9,5.4-9.9,12.1c0,6.6,6.6,9.9,9.9,9.9
			C-615.7-166.9-606.9-165.8-606.9-179z"/>
		<path fill="#FFFFFF" d="M-674.2-192.1c0-4.1-4.1-9.2-11.2-9.2c-6.2,0-9.2,5-9.2,11.2c0,6.1,6.1,9.2,9.2,9.2
			C-682.4-180.9-674.2-179.8-674.2-192.1z"/>
		<path fill="#FFFFFF" d="M-628.7-195.5c0-4.1-4.1-9.2-11.3-9.2c-6.2,0-9.2,5-9.2,11.3c0,6.1,6.1,9.2,9.2,9.2
			C-636.9-184.3-628.7-183.3-628.7-195.5z"/>
		<path fill="#FFFFFF" d="M-584.9-194.4c0-4.1-4.1-9.2-11.2-9.2c-6.2,0-9.2,5-9.2,11.2c0,6.1,6.1,9.2,9.2,9.2
			C-593.1-183.2-584.9-182.2-584.9-194.4z"/>
		<path fill="#FFFFFF" d="M-562.9-179c0-4.4-4.4-9.9-12.1-9.9c-6.7,0-9.9,5.4-9.9,12.1c0,6.6,6.6,9.9,9.9,9.9
			C-571.7-166.9-562.9-165.8-562.9-179z"/>
		<path fill="#FFFFFF" d="M-687.8-152.4c0-6.8-8-12.4-17.9-12.4s-17.9,5.5-17.9,12.4v6.9h35.7L-687.8-152.4L-687.8-152.4z"/>
		<path fill="#FFFFFF" d="M-642.3-152.4c0-6.8-8-12.4-17.9-12.4c-9.9,0-17.9,5.5-17.9,12.4v6.9h35.7L-642.3-152.4L-642.3-152.4z"/>
		<path fill="#FFFFFF" d="M-600-152.4c0-6.8-8-12.4-17.9-12.4c-9.9,0-17.9,5.5-17.9,12.4v6.9h35.7L-600-152.4L-600-152.4z"/>
		<path fill="#FFFFFF" d="M-556-152.4c0-6.8-8-12.4-17.9-12.4c-9.9,0-17.9,5.5-17.9,12.4v6.9h35.7L-556-152.4L-556-152.4z"/>
		<path fill="#FFFFFF" d="M-542.8-194.4c0-4.1-4.1-9.2-11.3-9.2c-6.2,0-9.2,5-9.2,11.2c0,6.1,6.1,9.2,9.2,9.2
			C-551-183.2-542.8-182.2-542.8-194.4z"/>
		<path fill="#FFFFFF" d="M-520.8-179c0-4.4-4.4-9.9-12.1-9.9c-6.7,0-9.9,5.4-9.9,12.1c0,6.6,6.6,9.9,9.9,9.9
			C-529.6-166.9-520.8-165.8-520.8-179z"/>
		<path fill="#FFFFFF" d="M-513.9-152.4c0-6.8-8-12.4-17.9-12.4c-9.9,0-17.9,5.5-17.9,12.4v6.9h35.7L-513.9-152.4L-513.9-152.4z"/>
	</g>
	<path fill="#FFFFFF" d="M-557.6-225.9H-676v-91.5h118.4V-225.9L-557.6-225.9z M-667.6-234.4h101.5V-309h-101.5V-234.4z"/>
	<path fill="#FFFFFF" d="M-687-308.9c-0.3,0-0.7-0.1-1-0.3l-16.9-9.3c-1-0.6-1.4-1.9-0.8-2.9c0.6-1,1.8-1.4,2.9-0.8l16.9,9.3
		c1,0.6,1.4,1.9,0.8,2.9C-685.6-309.3-686.3-308.9-687-308.9z"/>
	<path fill="#FFFFFF" d="M-687-287.2c-0.2,0-0.4,0-0.6-0.1l-14.1-3.9c-1.1-0.3-1.8-1.5-1.5-2.6c0.3-1.1,1.5-1.8,2.6-1.5l14.1,3.9
		c1.1,0.3,1.8,1.5,1.5,2.6C-685.3-287.8-686.1-287.2-687-287.2z"/>
	<path fill="#FFFFFF" d="M-703-241.9c-0.8,0-1.6-0.5-2-1.3c-0.5-1.1,0.1-2.3,1.1-2.8l16-6.7c1.1-0.4,2.3,0.1,2.8,1.1
		c0.5,1.1-0.1,2.3-1.1,2.8l-16,6.7C-702.5-242-702.7-241.9-703-241.9z"/>
	<path fill="#FFFFFF" d="M-700.8-216.1c-0.6,0-1.3-0.3-1.7-0.8c-0.7-0.9-0.5-2.3,0.4-3l13.8-10.6c0.9-0.7,2.3-0.5,3,0.4
		c0.7,0.9,0.5,2.3-0.4,3l-13.8,10.6C-699.9-216.3-700.4-216.1-700.8-216.1z"/>
	<path fill="#FFFFFF" d="M-700.2-267c-1.1,0-2-0.8-2.1-1.9c-0.1-1.2,0.7-2.2,1.8-2.4l13.1-1.6c1.2-0.1,2.2,0.7,2.4,1.8
		c0.1,1.2-0.7,2.2-1.8,2.4l-13.1,1.6C-700-267-700.1-267-700.2-267z"/>
	<path fill="#FFFFFF" d="M-530.7-221.9c-0.3,0-0.7-0.1-1-0.3l-16.9-9.3c-1-0.6-1.4-1.9-0.8-2.9c0.6-1,1.9-1.4,2.9-0.8l16.9,9.3
		c1,0.6,1.4,1.9,0.8,2.9C-529.2-222.3-529.9-221.9-530.7-221.9z"/>
	<path fill="#FFFFFF" d="M-531.6-247c-0.2,0-0.4,0-0.6-0.1l-14.1-3.9c-1.1-0.3-1.8-1.5-1.5-2.6c0.3-1.1,1.5-1.8,2.6-1.5l14.1,3.9
		c1.1,0.3,1.8,1.5,1.5,2.6C-529.8-247.7-530.7-247-531.6-247z"/>
	<path fill="#FFFFFF" d="M-547.6-287.7c-0.8,0-1.6-0.5-2-1.3c-0.5-1.1,0.1-2.3,1.1-2.8l16-6.7c1.1-0.4,2.3,0.1,2.8,1.1
		c0.5,1.1-0.1,2.3-1.1,2.8l-16,6.7C-547-287.7-547.3-287.7-547.6-287.7z"/>
	<path fill="#FFFFFF" d="M-547.6-309.5c-0.7,0-1.4-0.4-1.8-1c-0.6-1-0.3-2.3,0.7-2.9l16.2-9.6c1-0.6,2.3-0.3,2.9,0.7
		c0.6,1,0.3,2.3-0.7,2.9l-16.2,9.6C-546.8-309.6-547.2-309.5-547.6-309.5z"/>
	<path fill="#FFFFFF" d="M-545.7-267.7c-1.1,0-2-0.8-2.1-1.9c-0.1-1.2,0.7-2.2,1.8-2.4l13.1-1.6c1.2-0.1,2.2,0.7,2.4,1.8
		c0.1,1.2-0.7,2.2-1.8,2.4l-13.1,1.6C-545.5-267.7-545.6-267.7-545.7-267.7z"/>
	<path fill="#FFFFFF" d="M-598.1-273.3l-25.4-12.6c-0.7-0.3-1.4-0.3-2.1,0.1c-0.6,0.4-1,1.1-1,1.8v25.2c0,0.7,0.4,1.4,1,1.8
		c0.3,0.2,0.7,0.3,1.1,0.3c0.3,0,0.6-0.1,0.9-0.2l25.4-12.6c0.7-0.4,1.2-1.1,1.2-1.9C-597-272.2-597.4-272.9-598.1-273.3z"/>
	<path fill="#FFFFFF" d="M-666.6-324.5c-0.7,0-1.4-0.3-1.8-0.9l-7.9-11.8c-0.7-1-0.4-2.3,0.6-2.9c1-0.6,2.3-0.4,2.9,0.6l7.9,11.8
		c0.6,1,0.4,2.3-0.6,2.9C-665.8-324.6-666.2-324.5-666.6-324.5z"/>
	<path fill="#FFFFFF" d="M-564.8-323.2c-0.6,0-1.1-0.2-1.5-0.7c-0.8-0.8-0.8-2.2,0.1-3l12-11.5c0.8-0.8,2.2-0.8,3,0.1
		c0.8,0.8,0.8,2.2-0.1,3l-12,11.5C-563.8-323.4-564.3-323.2-564.8-323.2z"/>
	<path fill="#FFFFFF" d="M-637.4-326.3c-0.8,0-1.5-0.4-1.9-1.2l-4-8.1c-0.5-1.1-0.1-2.3,1-2.8c1.1-0.5,2.3-0.1,2.8,1l4,8.1
		c0.5,1.1,0.1,2.3-1,2.8C-636.8-326.4-637.1-326.3-637.4-326.3z"/>
	<path fill="#FFFFFF" d="M-588.5-324.6c-0.4,0-0.9-0.1-1.2-0.4c-0.9-0.7-1.2-2-0.5-3l5.9-8.3c0.7-0.9,2-1.2,3-0.5
		c0.9,0.7,1.2,2,0.5,3l-5.9,8.3C-587.2-324.9-587.8-324.6-588.5-324.6z"/>
	<path fill="#FFFFFF" d="M-614.9-324.4c-1.2,0-2.1-0.9-2.1-2.1V-338c0-1.2,0.9-2.1,2.1-2.1c1.2,0,2.1,0.9,2.1,2.1v11.6
		C-612.8-325.3-613.8-324.4-614.9-324.4z"/>
</g>
<g>
	<path fill="#FFFFFF" d="M-298.8-308.9h-70.4c-6.1,0-11,4.9-11,11v70.4c0,6.1,4.9,11,11,11h70.4c6.1,0,11-4.9,11-11v-70.4
		C-287.7-303.9-292.7-308.9-298.8-308.9z M-358.2-295.9c5,0,9.1,4.1,9.1,9.1s-4.1,9.1-9.1,9.1s-9.1-4.1-9.1-9.1
		S-363.2-295.9-358.2-295.9z M-358.2-229.3c-5,0-9.1-4.1-9.1-9.1s4.1-9.1,9.1-9.1s9.1,4.1,9.1,9.1S-353.2-229.3-358.2-229.3z
		 M-334-253.5c-5,0-9.1-4.1-9.1-9.1s4.1-9.1,9.1-9.1s9.1,4.1,9.1,9.1S-329-253.5-334-253.5z M-309.8-229.3c-5,0-9.1-4.1-9.1-9.1
		s4.1-9.1,9.1-9.1c5,0,9.1,4.1,9.1,9.1S-304.7-229.3-309.8-229.3z M-309.8-277.8c-5,0-9.1-4.1-9.1-9.1s4.1-9.1,9.1-9.1
		c5,0,9.1,4.1,9.1,9.1S-304.7-277.8-309.8-277.8z"/>
	<path fill="#FFFFFF" d="M-187-181l-49.8-49.8c-4.3-4.3-11.3-4.3-15.6,0l-49.8,49.8c-4.3,4.3-4.3,11.3,0,15.6l49.8,49.8
		c4.3,4.3,11.3,4.3,15.6,0l49.8-49.8C-182.7-169.7-182.7-176.7-187-181z M-238.2-213.9c3.5,3.5,3.5,9.3,0,12.8
		c-3.5,3.5-9.3,3.5-12.8,0c-3.5-3.5-3.5-9.3,0-12.8C-247.5-217.4-241.7-217.4-238.2-213.9z M-285.3-166.8c-3.5-3.5-3.5-9.3,0-12.8
		c3.5-3.5,9.3-3.5,12.8,0c3.5,3.5,3.5,9.3,0,12.8C-276-163.3-281.7-163.3-285.3-166.8z M-251-166.8c-3.5-3.5-3.5-9.3,0-12.8
		c3.5-3.5,9.3-3.5,12.8,0c3.5,3.5,3.5,9.3,0,12.8C-241.7-163.3-247.5-163.3-251-166.8z M-251-132.5c-3.5-3.5-3.5-9.3,0-12.8
		c3.5-3.5,9.3-3.5,12.8,0c3.5,3.5,3.5,9.3,0,12.8C-241.7-129-247.5-129-251-132.5z M-216.7-166.8c-3.5-3.5-3.5-9.3,0-12.8
		c3.5-3.5,9.3-3.5,12.8,0c3.5,3.5,3.5,9.3,0,12.8C-207.5-163.3-213.2-163.3-216.7-166.8z"/>
</g>
<g>
	<path fill="#FFFFFF" d="M-742.3,271.9"/>
	<g>
		<circle fill="#FFFFFF" cx="-769.7" cy="239.2" r="13"/>
		<path fill="#FFFFFF" d="M-743.8,274c-4.4-4.4-8.7-8.7-13.1-13.1c-2.2-3.6-6.2-6.8-13.4-6.8c-3.5,0-6.1,0.8-8.2,2
			c-0.6,0.1-1.2,0.3-1.7,0.8c-5.7,5.7-11.4,11.4-17.1,17.1c-1.1,1.1-1,2.8,0,3.9c1.1,1.1,2.8,1,3.9,0c2.7-2.7,5.4-5.4,8-8
			c0,1.2,0,1.9,0,1.9v19h4.9c0,8,0,16.1,0,24.1c0,1.5,1.2,2.8,2.7,2.8c1.5,0,2.8-1.2,2.8-2.7c0-8,0-16.1,0-24.1c0,0,0,0,0,0h10.1
			c0,8,0,16.1,0,24.1c0,1.5,1.2,2.8,2.7,2.8c1.5,0,2.8-1.2,2.8-2.7c0-8,0-16.1,0-24.1c0,0,0,0,0,0h5.1v-19.4
			c2.2,2.2,4.4,4.4,6.6,6.6c1.1,1.1,2.8,1,3.9,0C-742.7,276.8-742.7,275-743.8,274z"/>
	</g>
	<g>
		<path fill="#FFFFFF" d="M-694.2,273.9c-4.5-4.5-9-9-13.5-13.5c-2.2-3.5-6.2-6.7-13.4-6.7c-6.3,0-10,2.6-12.1,5.8
			c-4.8,4.8-9.6,9.6-14.4,14.4c-1.1,1.1-1,2.8,0,3.9c1.1,1.1,2.8,1,3.9,0c2.5-2.5,5.1-5.1,7.6-7.6c0,0.7,0,1.1,0,1.1l-6.4,27.3h11.3
			c0,5.3,0,10.5,0,15.8c0,1.5,1.2,2.8,2.7,2.8c1.5,0,2.8-1.2,2.8-2.7c0-5.3,0-10.6,0-15.9h10.1c0,5.3,0,10.5,0,15.8
			c0,1.5,1.2,2.8,2.7,2.8c1.5,0,2.8-1.2,2.8-2.7c0-5.3,0-10.6,0-15.9h13.7l-8.3-27.5c2.2,2.2,4.4,4.5,6.7,6.7c1.1,1.1,2.8,1,3.9,0
			C-693.1,276.7-693.1,275-694.2,273.9z"/>
		<path fill="#FFFFFF" d="M-720.9,252.6c3.4,0,6.4-1.3,8.7-3.4h4.3v-9.6c0-7.2-5.8-13-13-13c-7.2,0-13,5.8-13,13v9.6h4.3
			C-727.3,251.3-724.2,252.6-720.9,252.6z"/>
	</g>
	<path fill="#FFFFFF" d="M-643,271.9"/>
	<g>
		<circle fill="#FFFFFF" cx="-670.4" cy="239.2" r="13"/>
		<path fill="#FFFFFF" d="M-644.4,274c-4.4-4.4-8.7-8.7-13.1-13.1c-2.2-3.6-6.2-6.8-13.4-6.8c-3.5,0-6.1,0.8-8.2,2
			c-0.6,0.1-1.2,0.3-1.7,0.8c-5.7,5.7-11.4,11.4-17.1,17.1c-1.1,1.1-1,2.8,0,3.9c1.1,1.1,2.8,1,3.9,0c2.7-2.7,5.4-5.4,8-8
			c0,1.2,0,1.9,0,1.9v19h4.9c0,8,0,16.1,0,24.1c0,1.5,1.2,2.8,2.7,2.8c1.5,0,2.8-1.2,2.8-2.7c0-8,0-16.1,0-24.1c0,0,0,0,0,0h10.1
			c0,8,0,16.1,0,24.1c0,1.5,1.2,2.8,2.7,2.8c1.5,0,2.8-1.2,2.8-2.7c0-8,0-16.1,0-24.1c0,0,0,0,0,0h5.1v-19.4
			c2.2,2.2,4.4,4.4,6.6,6.6c1,1.1,2.8,1,3.9,0C-643.4,276.8-643.4,275-644.4,274z"/>
	</g>
	<g>
		<path fill="#FFFFFF" d="M-594.8,273.9c-4.5-4.5-9-9-13.5-13.5c-2.2-3.5-6.2-6.7-13.4-6.7c-6.3,0-10,2.6-12.1,5.8
			c-4.8,4.8-9.6,9.6-14.4,14.4c-1.1,1.1-1,2.8,0,3.9c1.1,1.1,2.8,1,3.9,0c2.5-2.5,5.1-5.1,7.6-7.6c0,0.7,0,1.1,0,1.1l-6.4,27.3h11.3
			c0,5.3,0,10.5,0,15.8c0,1.5,1.2,2.8,2.7,2.8c1.5,0,2.8-1.2,2.8-2.7c0-5.3,0-10.6,0-15.9h10.1c0,5.3,0,10.5,0,15.8
			c0,1.5,1.2,2.8,2.7,2.8c1.5,0,2.8-1.2,2.8-2.7c0-5.3,0-10.6,0-15.9h13.7l-8.3-27.5c2.2,2.2,4.4,4.5,6.7,6.7c1.1,1.1,2.8,1,3.9,0
			C-593.8,276.7-593.8,275-594.8,273.9z"/>
		<path fill="#FFFFFF" d="M-621.6,252.6c3.4,0,6.4-1.3,8.7-3.4h4.3v-9.6c0-7.2-5.8-13-13-13c-7.2,0-13,5.8-13,13v9.6h4.3
			C-628,251.3-624.9,252.6-621.6,252.6z"/>
	</g>
	<g>
		<circle fill="#FFFFFF" cx="-570" cy="239.2" r="13"/>
		<path fill="#FFFFFF" d="M-544,274c-4.4-4.4-8.7-8.7-13.1-13.1c-2.2-3.6-6.2-6.8-13.4-6.8c-3.5,0-6.1,0.8-8.2,2
			c-0.6,0.1-1.2,0.3-1.7,0.8c-5.7,5.7-11.4,11.4-17.1,17.1c-1.1,1.1-1,2.8,0,3.9c1.1,1.1,2.8,1,3.9,0c2.7-2.7,5.4-5.4,8-8
			c0,1.2,0,1.9,0,1.9v19h4.9c0,8,0,16.1,0,24.1c0,1.5,1.2,2.8,2.7,2.8c1.5,0,2.8-1.2,2.8-2.7c0-8,0-16.1,0-24.1c0,0,0,0,0,0h10.1
			c0,8,0,16.1,0,24.1c0,1.5,1.2,2.8,2.7,2.8c1.5,0,2.8-1.2,2.8-2.7c0-8,0-16.1,0-24.1c0,0,0,0,0,0h5.1v-19.4
			c2.2,2.2,4.4,4.4,6.6,6.6c1.1,1.1,2.8,1,3.9,0C-543,276.8-543,275-544,274z"/>
	</g>
</g>
<g>
	<path fill="#FFFFFF" d="M-261.5,340.1v3.5c0,3.9-3.1,7-7,7h-3.5c-3.9,0-7-3.1-7-7v-3.5H-261.5L-261.5,340.1z M-461,306.9
		c0-3.6,1.3-6.8,3.5-9.3v-29.2c0-3.9,3.1-7,7-7h3.5c2.4,0,4.5,1.2,5.8,3c6.1,8.8,16.1,14.5,27.5,14.5c8.6,0,16.5-3.3,22.4-8.7
		c2.8-2.5,5.1-5.5,6.9-8.8c2.3-4.2,3.7-8.9,3.9-14c1.8,0,3.6,0.3,5.3,1l129.3,52.4c5.3,2.2,9,7.2,9,13.1v7c0,7.7-6.3,14-14,14
		h-122.5c-5.3,0-9.9-2.9-12.2-7.2c-2.4,4.3-7,7.2-12.2,7.2h-49c-7.7,0-14-6.3-14-14V306.9L-461,306.9z M-429.5,340.1v3.5
		c0,3.9-3.1,7-7,7h-3.5c-3.9,0-7-3.1-7-7v-3.5H-429.5L-429.5,340.1z M-398,340.1v3.5c0,3.9-3.1,7-7,7h-3.5c-3.9,0-7-3.1-7-7v-3.5
		H-398L-398,340.1z M-324.5,340.1v3.5c0,3.9-3.1,7-7,7h-3.5c-3.9,0-7-3.1-7-7v-3.5H-324.5L-324.5,340.1z M-293,340.1v3.5
		c0,3.9-3.1,7-7,7h-3.5c-3.9,0-7-3.1-7-7v-3.5H-293L-293,340.1z"/>
</g>
<g>
	<path fill="#FFFFFF" d="M135.1-9.4c-1.4-1.1-3.1-1.3-4.7-0.6L55.3,22.4c-3.3,1.4-7.4,2.1-11.5,2.1c-5.9,0-11.9-1.3-16.1-3.2
		c-1.5-0.6-2.8-1.4-3.7-2c0.3-0.2,0.7-0.3,1.1-0.5l68.3-29.6l10.2,4.4v-12.7c0-1.9-0.8-3.7-2.2-4.8c-1.4-1.1-3.2-1.3-4.7-0.6L21.5,8
		c-2.3,0.9-4.3,2.1-6,3.8c-1.7,1.6-3.1,4.3-3.1,7.3c0,0.1,0,0.2,0,0.2v114.5c0,0,0,0.1,0,0.2c0,0,0,0.1,0,0.1v0.1h0
		c0.2,4.1,2.2,6.6,4.1,8.4c6.1,5.3,16.3,8.3,27.1,8.6c5.1,0,10.3-0.8,15.2-2.8l75.1-32.6c2-0.8,3.3-3,3.3-5.4V-4.7
		C137.2-6.6,136.4-8.4,135.1-9.4z"/>
	<path fill="#FFFFFF" d="M87.4-31.2c-0.1-1.7-0.8-3.3-2.1-4.3c-1.4-1.1-3.1-1.3-4.7-0.6L5.5-3.7C2.3-2.3-1.8-1.6-6-1.6
		c-5.9,0-11.9-1.4-16.1-3.2c-1.5-0.6-2.8-1.4-3.7-2c0.3-0.2,0.7-0.3,1.1-0.5l68.3-29.6l10.2,4.4v-12.7c0-1.9-0.8-3.7-2.2-4.8
		c-1.4-1.1-3.2-1.3-4.7-0.6l-75.1,32.5c-2.3,0.9-4.3,2.1-6,3.8c-1.7,1.6-3.1,4.3-3.1,7.3c0,0.1,0,0.2,0,0.2v114.5c0,0,0,0.1,0,0.2
		c0,0,0,0,0,0.2v0.2h0c0.2,4.1,2.2,6.6,4.1,8.3c6.1,5.4,16.3,8.3,27.1,8.5c2.9,0,5.9-0.4,8.8-0.9V19.2C2.7,13.8,4.8,8.6,8.7,4.8
		c2.5-2.4,5.5-4.4,9.2-5.9L87.4-31.2z"/>
</g>
</svg>
